<?xml version="1.0" standalone="no"?>
<!DOCTYPE svg PUBLIC "-//W3C//DTD SVG 20010904//EN"
 "http://www.w3.org/TR/2001/REC-SVG-20010904/DTD/svg10.dtd">
<svg version="1.0" xmlns="http://www.w3.org/2000/svg"
 width="1000.000000pt" height="1000.000000pt" viewBox="0 0 1000.000000 1000.000000"
 preserveAspectRatio="xMidYMid meet">
<metadata>
Created by potrace 1.11, written by Peter Selinger 2001-2013
</metadata>
<g transform="translate(0.000000,1000.000000) scale(0.100000,-0.100000)"
fill="#000000" stroke="none">
<path d="M2847 7934 c-1 -1 -54 -4 -117 -8 -137 -7 -214 -13 -249 -20 -14 -3
-46 -8 -71 -11 -218 -27 -594 -128 -820 -220 -119 -48 -290 -126 -385 -175
-144 -74 -380 -212 -441 -257 l-29 -21 180 -361 c99 -199 183 -361 187 -361 3
0 41 23 84 51 348 230 774 428 1079 500 93 22 107 25 165 35 19 4 44 8 55 10
103 19 469 26 589 11 579 -74 931 -388 1031 -921 16 -83 16 -85 -9 -163 -28
-88 -40 -149 -56 -273 -6 -47 -13 -95 -15 -106 -2 -12 -6 -47 -10 -78 -4 -31
-11 -56 -16 -56 -4 0 -30 8 -56 19 -78 30 -327 96 -438 115 -104 18 -230 36
-290 41 -38 4 -80 8 -93 10 -104 17 -511 23 -672 11 -118 -9 -315 -34 -400
-51 -354 -71 -646 -187 -905 -360 -120 -81 -165 -117 -265 -215 -218 -214
-372 -487 -424 -755 -9 -44 -18 -93 -22 -110 -10 -53 -12 -338 -2 -415 25
-202 70 -357 158 -535 171 -349 442 -618 792 -785 281 -134 533 -190 858 -192
125 -1 315 8 350 17 8 2 40 6 71 10 31 3 67 8 80 10 13 3 40 7 59 11 63 10
134 25 214 45 43 11 86 22 95 24 79 17 338 118 463 181 391 194 690 446 889
749 34 52 66 95 69 95 4 0 20 -19 36 -42 156 -229 456 -509 721 -674 293 -182
641 -322 916 -368 15 -3 35 -7 45 -10 9 -2 37 -7 62 -10 25 -4 56 -8 70 -11
24 -4 81 -10 200 -21 128 -12 551 -4 610 11 8 2 42 6 75 10 291 31 686 155
975 308 88 46 290 172 335 210 11 8 54 42 95 75 110 86 264 241 360 363 113
142 264 404 238 414 -14 5 -462 134 -488 140 -8 2 -116 33 -240 69 -124 36
-229 66 -235 66 -5 -1 -20 -23 -33 -50 -30 -63 -108 -183 -158 -240 -209 -241
-474 -402 -789 -480 -194 -48 -255 -55 -460 -55 -174 1 -236 7 -401 41 -65 13
-231 68 -304 101 -371 166 -655 435 -836 796 -98 193 -165 438 -178 642 -1 20
11 20 2222 20 l2222 0 10 35 c26 99 29 526 5 680 -2 14 -11 75 -20 135 -114
761 -549 1465 -1159 1875 -352 236 -780 398 -1181 445 -16 2 -55 7 -85 10
-133 16 -460 23 -572 11 -32 -3 -84 -8 -115 -11 -32 -3 -69 -8 -83 -10 -14 -3
-40 -7 -57 -10 -18 -3 -48 -7 -65 -10 -66 -11 -295 -75 -373 -103 -281 -104
-546 -256 -781 -447 -77 -62 -284 -265 -284 -277 0 -18 -17 -6 -35 25 -57 99
-223 281 -344 379 -176 142 -381 253 -616 334 -84 29 -283 80 -345 89 -25 3
-52 8 -60 10 -15 4 -90 14 -145 20 -90 10 -431 24 -438 19z m4186 -859 c36 -5
163 -32 197 -40 8 -3 34 -9 58 -15 23 -6 50 -14 60 -19 9 -5 53 -23 97 -41
445 -171 802 -582 956 -1099 30 -102 32 -110 54 -236 13 -75 19 -126 16 -150
-1 -7 -563 -10 -1673 -10 l-1673 0 1 30 c4 66 13 153 24 210 14 74 66 263 87
313 60 146 101 224 178 342 227 348 548 576 953 679 73 19 102 24 232 41 60 8
372 4 433 -5z m-3868 -2029 c28 -3 68 -8 90 -11 208 -24 459 -78 684 -145 l71
-21 1 -37 c0 -51 21 -244 34 -312 2 -14 6 -43 9 -66 12 -104 51 -258 87 -340
19 -44 20 -54 9 -104 -25 -114 -84 -194 -321 -430 -75 -75 -181 -156 -259
-199 -172 -94 -389 -175 -545 -206 -215 -41 -504 -54 -659 -29 -460 75 -820
423 -864 836 -42 397 144 701 555 907 46 23 86 42 90 42 13 2 37 10 58 19 86
38 313 85 462 96 48 4 89 8 91 9 5 5 359 -3 407 -9z"/>
</g>
</svg>
